<svg width="111" height="27" viewBox="0 0 111 27" fill="none" xmlns="http://www.w3.org/2000/svg">
<path d="M5.5 22.5L1 16.5L7.5 15L12 19.5L16.5 14L12 7.5L7.5 11.5L1 10L5.5 4" stroke="white" stroke-width="2" stroke-linecap="round" stroke-linejoin="round"/>
<path d="M42.588 21L42.566 9.78L37 19.13H35.988L30.422 9.846V21H28.31V5.6H30.114L36.538 16.424L42.874 5.6H44.678L44.7 21H42.588ZM53.2597 9.23C54.8731 9.23 56.1051 9.626 56.9557 10.418C57.8211 11.21 58.2537 12.3907 58.2537 13.96V21H56.2517V19.46C55.8997 20.0027 55.3937 20.4207 54.7337 20.714C54.0884 20.9927 53.3184 21.132 52.4237 21.132C51.1184 21.132 50.0697 20.8167 49.2777 20.186C48.5004 19.5553 48.1117 18.7267 48.1117 17.7C48.1117 16.6733 48.4857 15.852 49.2337 15.236C49.9817 14.6053 51.1697 14.29 52.7977 14.29H56.1417V13.872C56.1417 12.9627 55.8777 12.266 55.3497 11.782C54.8217 11.298 54.0444 11.056 53.0177 11.056C52.3284 11.056 51.6537 11.1733 50.9937 11.408C50.3337 11.628 49.7764 11.9287 49.3217 12.31L48.4417 10.726C49.0431 10.242 49.7617 9.87533 50.5977 9.626C51.4337 9.362 52.3211 9.23 53.2597 9.23ZM52.7757 19.504C53.5824 19.504 54.2791 19.328 54.8657 18.976C55.4524 18.6093 55.8777 18.096 56.1417 17.436V15.808H52.8857C51.0964 15.808 50.2017 16.4093 50.2017 17.612C50.2017 18.1987 50.4291 18.6607 50.8837 18.998C51.3384 19.3353 51.9691 19.504 52.7757 19.504ZM64.1862 11.298C64.5528 10.6233 65.0955 10.11 65.8142 9.758C66.5328 9.406 67.4055 9.23 68.4322 9.23V11.276C68.3148 11.2613 68.1535 11.254 67.9482 11.254C66.8042 11.254 65.9022 11.5987 65.2422 12.288C64.5968 12.9627 64.2742 13.9307 64.2742 15.192V21H62.1622V9.34H64.1862V11.298ZM82.0818 9.34V19.416C82.0818 21.4547 81.5758 22.958 80.5638 23.926C79.5518 24.9087 78.0411 25.4 76.0318 25.4C74.9318 25.4 73.8831 25.246 72.8858 24.938C71.8884 24.6447 71.0818 24.2193 70.4658 23.662L71.4778 22.034C72.0204 22.5033 72.6878 22.87 73.4798 23.134C74.2864 23.4127 75.1151 23.552 75.9658 23.552C77.3298 23.552 78.3344 23.2293 78.9798 22.584C79.6398 21.9387 79.9698 20.956 79.9698 19.636V18.712C79.4711 19.3133 78.8551 19.768 78.1218 20.076C77.4031 20.3693 76.6184 20.516 75.7678 20.516C74.6531 20.516 73.6411 20.2813 72.7318 19.812C71.8371 19.328 71.1331 18.6607 70.6198 17.81C70.1064 16.9447 69.8498 15.962 69.8498 14.862C69.8498 13.762 70.1064 12.7867 70.6198 11.936C71.1331 11.0707 71.8371 10.4033 72.7318 9.934C73.6411 9.46467 74.6531 9.23 75.7678 9.23C76.6478 9.23 77.4618 9.39133 78.2098 9.714C78.9724 10.0367 79.5958 10.5133 80.0798 11.144V9.34H82.0818ZM76.0098 18.668C76.7724 18.668 77.4544 18.5067 78.0558 18.184C78.6718 17.8613 79.1484 17.414 79.4858 16.842C79.8378 16.2553 80.0138 15.5953 80.0138 14.862C80.0138 13.7327 79.6398 12.8233 78.8918 12.134C78.1438 11.43 77.1831 11.078 76.0098 11.078C74.8218 11.078 73.8538 11.43 73.1058 12.134C72.3578 12.8233 71.9838 13.7327 71.9838 14.862C71.9838 15.5953 72.1524 16.2553 72.4898 16.842C72.8418 17.414 73.3184 17.8613 73.9198 18.184C74.5358 18.5067 75.2324 18.668 76.0098 18.668ZM96.9852 9.34V21H94.9832V19.24C94.5579 19.8413 93.9932 20.3107 93.2892 20.648C92.5999 20.9707 91.8446 21.132 91.0232 21.132C89.4686 21.132 88.2439 20.7067 87.3492 19.856C86.4546 18.9907 86.0072 17.722 86.0072 16.05V9.34H88.1192V15.808C88.1192 16.9373 88.3906 17.7953 88.9332 18.382C89.4759 18.954 90.2532 19.24 91.2652 19.24C92.3799 19.24 93.2599 18.9027 93.9052 18.228C94.5506 17.5533 94.8732 16.6 94.8732 15.368V9.34H96.9852ZM104.35 21.132C103.397 21.132 102.48 21.0073 101.6 20.758C100.72 20.494 100.031 20.164 99.5319 19.768L100.412 18.096C100.925 18.4627 101.549 18.756 102.282 18.976C103.015 19.196 103.756 19.306 104.504 19.306C106.352 19.306 107.276 18.778 107.276 17.722C107.276 17.37 107.151 17.0913 106.902 16.886C106.653 16.6807 106.337 16.534 105.956 16.446C105.589 16.3433 105.061 16.2333 104.372 16.116C103.433 15.9693 102.663 15.8007 102.062 15.61C101.475 15.4193 100.969 15.0967 100.544 14.642C100.119 14.1873 99.9059 13.5493 99.9059 12.728C99.9059 11.672 100.346 10.8287 101.226 10.198C102.106 9.55267 103.287 9.23 104.768 9.23C105.545 9.23 106.323 9.32533 107.1 9.516C107.877 9.70667 108.515 9.96333 109.014 10.286L108.112 11.958C107.159 11.342 106.037 11.034 104.746 11.034C103.851 11.034 103.169 11.1807 102.7 11.474C102.231 11.7673 101.996 12.156 101.996 12.64C101.996 13.0213 102.128 13.322 102.392 13.542C102.656 13.762 102.979 13.9233 103.36 14.026C103.756 14.1287 104.306 14.246 105.01 14.378C105.949 14.5393 106.704 14.7153 107.276 14.906C107.863 15.082 108.361 15.39 108.772 15.83C109.183 16.27 109.388 16.886 109.388 17.678C109.388 18.734 108.933 19.5773 108.024 20.208C107.129 20.824 105.905 21.132 104.35 21.132Z" fill="white"/>
</svg>
