<svg width="32" height="32" viewBox="0 0 32 32" fill="none" xmlns="http://www.w3.org/2000/svg">
<path d="M16 11H6V18H16V11Z" fill="#E8EFF4"/>
<path d="M6 11L11 6L16 11H6Z" fill="#E0747C"/>
<path d="M23.33 12.5C22.433 12.4996 21.5447 12.676 20.7159 13.0192C19.8871 13.3624 19.1342 13.8656 18.5 14.5V14.035C18.5001 11.7714 19.3994 9.60056 21 8L19.5 6.5L17.5 9L15.5 7L12.78 7.78L16 11V18H12C12.4613 18.3082 12.8395 18.7254 13.1012 19.2147C13.3628 19.704 13.4998 20.2502 13.5 20.805V31H18.5V19.62C18.5 18.2621 19.0394 16.9598 19.9996 15.9996C20.9598 15.0394 22.2621 14.5 23.62 14.5H24V12.5H23.33Z" fill="#AC876C"/>
<path d="M28 9.99992C28 9.07166 27.6312 8.18142 26.9749 7.52504C26.3185 6.86867 25.4282 6.49992 24.5 6.49992H24.35C24.4474 6.17545 24.498 5.8387 24.5 5.49992C24.4993 4.84648 24.3158 4.20627 23.9701 3.65175C23.6244 3.09724 23.1304 2.65057 22.544 2.36231C21.9576 2.07404 21.3022 1.95569 20.652 2.02066C20.0018 2.08563 19.3828 2.33132 18.865 2.72992C18.6997 2.24227 18.388 1.81753 17.9723 1.51375C17.5565 1.20996 17.0572 1.04193 16.5424 1.03263C16.0276 1.02333 15.5225 1.17321 15.0961 1.46178C14.6696 1.75036 14.3427 2.16356 14.16 2.64492C13.885 2.39422 13.5569 2.20889 13.2002 2.10278C12.8436 1.99668 12.4675 1.97253 12.1002 2.03215C11.7329 2.09176 11.3838 2.2336 11.079 2.44707C10.7742 2.66053 10.5216 2.94011 10.34 3.26492C9.61894 2.96588 8.81863 2.91647 8.06628 3.12453C7.31393 3.33259 6.65273 3.78618 6.18778 4.4132C5.72284 5.04021 5.48084 5.80466 5.50027 6.585C5.51969 7.36535 5.79942 8.11681 6.29498 8.71992C5.64855 8.95784 5.08669 9.38123 4.6798 9.93703C4.27291 10.4928 4.03906 11.1564 4.00757 11.8445C3.97607 12.5326 4.14832 13.2147 4.50274 13.8053C4.85716 14.396 5.37799 14.8689 5.99998 15.1649V15.1649V10.9999L11 5.99992L12.78 7.77992L15.5 6.99992L17.5 8.99992L19.5 6.49992L21 7.99992C19.3993 9.60048 18.5001 11.7713 18.5 14.0349V14.4999C19.1341 13.8655 19.8871 13.3623 20.7159 13.0191C21.5447 12.676 22.433 12.4995 23.33 12.4999H24V14.4999H23.62C22.2621 14.4999 20.9598 15.0393 19.9996 15.9995C19.0394 16.9597 18.5 18.262 18.5 19.6199V19.8499C18.8242 19.9487 19.1611 19.9992 19.5 19.9999C20.1636 20.0014 20.814 19.8141 21.3753 19.46C21.9365 19.1059 22.3856 18.5995 22.67 17.9999C23.4049 18.4629 24.2858 18.6361 25.1413 18.4858C25.9969 18.3354 26.7659 17.8723 27.299 17.1865C27.8321 16.5007 28.0911 15.6411 28.0256 14.7749C27.9602 13.9088 27.575 13.0979 26.945 12.4999C27.2784 12.1744 27.5435 11.7856 27.7246 11.3563C27.9058 10.927 27.9994 10.4659 28 9.99992V9.99992Z" fill="#C7E2FC"/>
<path d="M9 18V15C9 14.4696 9.21071 13.9609 9.58579 13.5858C9.96086 13.2107 10.4696 13 11 13V13C11.5304 13 12.0391 13.2107 12.4142 13.5858C12.7893 13.9609 13 14.4696 13 15V18H9Z" fill="white"/>
<path d="M18 14.5005C18.0005 14.5992 18.0302 14.6956 18.0854 14.7774C18.1405 14.8593 18.2187 14.923 18.31 14.9605C18.3694 14.9885 18.4344 15.0022 18.5 15.0005C18.5658 15.0009 18.6311 14.9883 18.692 14.9634C18.7529 14.9385 18.8083 14.9018 18.855 14.8555C19.4413 14.2659 20.1387 13.7983 20.9068 13.4799C21.6749 13.1615 22.4985 12.9986 23.33 13.0005H24V12.0005H23.33C21.7833 11.9967 20.2755 12.4853 19.025 13.3955C19.1751 11.4912 20.0015 9.70346 21.355 8.35551L20.645 7.64551C19.8046 8.48359 19.1382 9.47964 18.6842 10.5763C18.2303 11.673 17.9978 12.8486 18 14.0355V14.5005Z" fill="black"/>
<path d="M19 30.5003V20.4603C19.1654 20.4862 19.3326 20.4996 19.5 20.5003C20.1719 20.4998 20.8328 20.33 21.4218 20.0067C22.0108 19.6834 22.5089 19.2169 22.87 18.6503C23.3824 18.8812 23.938 19.0005 24.5 19.0003C25.5609 19.0003 26.5783 18.5789 27.3284 17.8287C28.0786 17.0786 28.5 16.0612 28.5 15.0003C28.5025 14.0906 28.1918 13.2078 27.62 12.5003C28.1918 11.7928 28.5025 10.91 28.5 10.0003C28.5005 9.01959 28.1407 8.07287 27.489 7.34003C26.8373 6.60719 25.9391 6.13931 24.965 6.0253C24.9891 5.85135 25.0008 5.67591 25 5.5003C24.9984 4.8067 24.8165 4.12543 24.4722 3.52336C24.1278 2.92129 23.6328 2.41912 23.0357 2.06613C22.4387 1.71314 21.7601 1.52146 21.0666 1.50992C20.3731 1.49838 19.6885 1.66737 19.08 2.0003C18.8189 1.56486 18.4516 1.20279 18.0124 0.948022C17.5733 0.693249 17.0766 0.554101 16.569 0.543609C16.0614 0.533118 15.5595 0.651625 15.1101 0.888033C14.6608 1.12444 14.2788 1.47102 14 1.8953C13.3762 1.53635 12.6431 1.41653 11.9375 1.55821C11.2319 1.69989 10.6019 2.09338 10.165 2.6653C9.39665 2.43251 8.57604 2.43631 7.80988 2.67621C7.04372 2.9161 6.36748 3.381 5.86912 4.01043C5.37075 4.63986 5.07332 5.40469 5.01552 6.20545C4.95771 7.0062 5.14221 7.80582 5.545 8.5003C4.92832 8.84554 4.41411 9.34799 4.05472 9.95654C3.69534 10.5651 3.5036 11.258 3.49903 11.9647C3.49445 12.6714 3.67721 13.3668 4.02869 13.9799C4.38018 14.593 4.88784 15.1021 5.5 15.4553V18.0003C5.5 18.1329 5.55268 18.2601 5.64645 18.3539C5.74021 18.4476 5.86739 18.5003 6 18.5003H6.5V19.5003H5.5V20.5003H6.5V25.5003H5.5V26.5003H6.5V28.5003H7.5V26.5003H9.5V28.5003H10.5V26.5003H11.5V25.5003H10.5V20.5003H11.5V19.5003H10.5V18.5003H11.835C12.1961 18.7665 12.4896 19.1137 12.692 19.5141C12.8943 19.9144 12.9998 20.3567 13 20.8053V30.5003H0.5V31.5003H31.5V30.5003H19ZM6.5 17.5003V16.5003H8.5V17.5003H6.5ZM13.45 14.5003H15.5V15.5003H13.5V15.0003C13.4987 14.8325 13.482 14.6651 13.45 14.5003ZM15.5 13.5003H13C12.7703 13.1852 12.4694 12.9289 12.1219 12.7521C11.7743 12.5754 11.3899 12.4833 11 12.4833C10.6101 12.4833 10.2257 12.5754 9.87813 12.7521C9.53057 12.9289 9.22969 13.1852 9 13.5003V13.5003H6.5V11.5003H15.5V13.5003ZM8.55 14.5003C8.51803 14.6651 8.50129 14.8325 8.5 15.0003V15.5003H6.5V14.5003H8.55ZM9.5 15.0003C9.5 14.6025 9.65804 14.2209 9.93934 13.9396C10.2206 13.6583 10.6022 13.5003 11 13.5003C11.3978 13.5003 11.7794 13.6583 12.0607 13.9396C12.342 14.2209 12.5 14.6025 12.5 15.0003V17.5003H9.5V15.0003ZM13.5 16.5003H15.5V17.5003H13.5V16.5003ZM7.205 10.5003L11 6.7053L14.795 10.5003H7.205ZM9.5 23.5003H7.5V22.5003H9.5V23.5003ZM7.5 25.5003V24.5003H9.5V25.5003H7.5ZM9.5 21.5003H7.5V20.5003H9.5V21.5003ZM9.5 19.5003H7.5V18.5003H9.5V19.5003ZM13.235 18.5003H16C16.1326 18.5003 16.2598 18.4476 16.3536 18.3539C16.4473 18.2601 16.5 18.1329 16.5 18.0003V11.0003C16.5004 10.9345 16.4878 10.8693 16.4629 10.8083C16.438 10.7474 16.4013 10.692 16.355 10.6453L11.355 5.6453C11.3085 5.59844 11.2532 5.56124 11.1923 5.53586C11.1314 5.51047 11.066 5.4974 11 5.4974C10.934 5.4974 10.8686 5.51047 10.8077 5.53586C10.7468 5.56124 10.6915 5.59844 10.645 5.6453L5.645 10.6453C5.59866 10.692 5.562 10.7474 5.53711 10.8083C5.51223 10.8693 5.49962 10.9345 5.5 11.0003V14.2353C5.11574 13.8899 4.8272 13.4512 4.66231 12.9615C4.49742 12.4719 4.46179 11.9479 4.55885 11.4405C4.65592 10.933 4.8824 10.4592 5.21635 10.065C5.5503 9.67078 5.98041 9.36949 6.465 9.1903C6.54056 9.16307 6.60845 9.11804 6.66293 9.05902C6.7174 8.99999 6.75685 8.92871 6.77794 8.85121C6.79903 8.77371 6.80114 8.69227 6.7841 8.61378C6.76705 8.5353 6.73134 8.46207 6.68 8.4003C6.3204 7.9609 6.09287 7.42847 6.02387 6.86488C5.95487 6.30129 6.04722 5.7297 6.2902 5.21652C6.53317 4.70334 6.91679 4.26965 7.39648 3.96585C7.87616 3.66205 8.43221 3.50061 9 3.5003C9.39329 3.49881 9.7828 3.57705 10.145 3.7303C10.2592 3.77543 10.3861 3.77692 10.5014 3.7345C10.6166 3.69208 10.7123 3.60871 10.77 3.5003C10.9148 3.24018 11.1165 3.01616 11.3601 2.84499C11.6037 2.67383 11.8828 2.55994 12.1766 2.51186C12.4704 2.46377 12.7713 2.48273 13.0568 2.56731C13.3422 2.6519 13.6048 2.79991 13.825 3.0003C13.8858 3.05522 13.9591 3.09435 14.0386 3.11427C14.1181 3.13418 14.2012 3.13427 14.2807 3.11452C14.3602 3.09476 14.4337 3.05578 14.4946 3.00099C14.5555 2.9462 14.602 2.87728 14.63 2.8003C14.7772 2.41665 15.0389 2.08765 15.3797 1.85803C15.7205 1.62841 16.1237 1.50933 16.5345 1.51698C16.9454 1.52463 17.3439 1.65864 17.6759 1.90078C18.0079 2.14292 18.2572 2.48144 18.39 2.8703C18.4147 2.94707 18.4576 3.01673 18.5151 3.07332C18.5726 3.12991 18.6429 3.17176 18.72 3.1953C18.7964 3.218 18.877 3.22214 18.9553 3.20735C19.0336 3.19257 19.1072 3.15929 19.17 3.1103C19.6149 2.76783 20.1469 2.55706 20.7056 2.50196C21.2644 2.44687 21.8273 2.54967 22.3305 2.79866C22.8337 3.04765 23.2569 3.43285 23.5521 3.91045C23.8472 4.38805 24.0024 4.93888 24 5.5003C23.9981 5.793 23.956 6.08404 23.875 6.3653C23.8516 6.44127 23.8467 6.52172 23.8606 6.59998C23.8745 6.67824 23.9069 6.75205 23.955 6.8153C24.0046 6.87835 24.0687 6.92852 24.1418 6.96159C24.2149 6.99466 24.2949 7.00965 24.375 7.0053H24.5C25.0964 7.00478 25.6795 7.18205 26.1747 7.51448C26.6699 7.84691 27.0548 8.3194 27.2802 8.87161C27.5056 9.42382 27.5612 10.0307 27.4401 10.6147C27.3189 11.1987 27.0265 11.7333 26.6 12.1503C26.5531 12.1968 26.5159 12.2521 26.4906 12.313C26.4652 12.3739 26.4521 12.4393 26.4521 12.5053C26.4521 12.5713 26.4652 12.6367 26.4906 12.6976C26.5159 12.7585 26.5531 12.8138 26.6 12.8603C27.1279 13.3762 27.4471 14.0686 27.4965 14.8051C27.5459 15.5416 27.3221 16.2705 26.8678 16.8523C26.4135 17.4341 25.7607 17.8279 25.0342 17.9586C24.3077 18.0892 23.5585 17.9474 22.93 17.5603C22.8702 17.5231 22.8032 17.499 22.7334 17.4895C22.6636 17.48 22.5926 17.4854 22.525 17.5053C22.4576 17.5252 22.3952 17.5591 22.3418 17.6048C22.2883 17.6504 22.2451 17.7068 22.215 17.7703C21.9736 18.2869 21.5901 18.7239 21.1092 19.0303C20.6284 19.3367 20.0702 19.4997 19.5 19.5003C19.3323 19.5011 19.1649 19.486 19 19.4553C19.0415 18.2584 19.5467 17.1245 20.4088 16.2932C21.2709 15.4619 22.4224 14.9983 23.62 15.0003H24V14.0003H23.62C22.8818 13.9996 22.1507 14.1446 21.4685 14.4268C20.7864 14.709 20.1666 15.1229 19.6446 15.6449C19.1226 16.1669 18.7087 16.7867 18.4265 17.4688C18.1443 18.151 17.9993 18.8821 18 19.6203V30.5003H16V26.0003H15V30.5003H14V20.8053C14.0007 19.9745 13.7323 19.1658 13.235 18.5003V18.5003Z" fill="black"/>
<path d="M17.4995 9.50043H17.5295C17.5995 9.49578 17.6677 9.47646 17.7297 9.44372C17.7918 9.41099 17.8462 9.36558 17.8895 9.31043L19.8895 6.81043L19.1095 6.19043L17.4595 8.25043L15.8545 6.64543L15.1445 7.35543L17.1445 9.35543C17.1913 9.40177 17.2467 9.43843 17.3076 9.46332C17.3685 9.4882 17.4337 9.50081 17.4995 9.50043Z" fill="black"/>
<path d="M17 20.5H16V25H17V20.5Z" fill="black"/>
</svg>
