<?xml version="1.0" ?><svg viewBox="0 0 64 64" xmlns="http://www.w3.org/2000/svg"><defs><style>.cls-1{fill:#e8eff4;}.cls-2{fill:#e0747c;}.cls-3{fill:#ac876c;}.cls-4{fill:#c7e2fc;}.cls-5{fill:#fff;}</style></defs><title/><g data-name="Layer 19" id="Layer_19"><rect class="cls-1" height="14" width="20" x="12" y="22"/><polygon class="cls-2" points="12 22 22 12 32 22 12 22"/><path class="cls-3" d="M46.66,25A13.65,13.65,0,0,0,37,29v-.93A17.07,17.07,0,0,1,42,16l-3-3-4,5-4-4-5.44,1.56L32,22V36H24a6.75,6.75,0,0,1,3,5.61V62H37V39.24A10.24,10.24,0,0,1,47.24,29H48V25Z"/><path class="cls-4" d="M56,20a7,7,0,0,0-7-7l-.3,0a7.1,7.1,0,0,0,.3-2A7,7,0,0,0,37.73,5.46a5,5,0,0,0-9.41-.17,4.94,4.94,0,0,0-7.64,1.24,7,7,0,0,0-8.09,10.91A7,7,0,0,0,12,30.33h0V22L22,12l3.56,3.56L31,14l4,4,4-5,3,3a17.07,17.07,0,0,0-5,12.07V29a13.65,13.65,0,0,1,9.66-4H48v4h-.76A10.24,10.24,0,0,0,37,39.24v.46a6.91,6.91,0,0,0,2,.3,7,7,0,0,0,6.34-4,7,7,0,0,0,8.55-11A7,7,0,0,0,56,20Z"/><path class="cls-5" d="M18,36V30a4,4,0,0,1,4-4h0a4,4,0,0,1,4,4v6Z"/><path d="M36,29a1,1,0,0,0,.62.92A.84.84,0,0,0,37,30a1,1,0,0,0,.71-.29A12.58,12.58,0,0,1,46.66,26H48V24H46.66a14.57,14.57,0,0,0-8.61,2.79,16,16,0,0,1,4.66-10.08l-1.42-1.42A18,18,0,0,0,36,28.07Z"/><path d="M38,61V40.92A6.63,6.63,0,0,0,39,41a8,8,0,0,0,6.74-3.7A7.93,7.93,0,0,0,49,38a8,8,0,0,0,8-8,7.92,7.92,0,0,0-1.76-5A7.92,7.92,0,0,0,57,20a8,8,0,0,0-7.07-7.95A7.41,7.41,0,0,0,50,11,8,8,0,0,0,38.16,4,6,6,0,0,0,28,3.79a5.93,5.93,0,0,0-7.67,1.54A8,8,0,0,0,11.09,17,8,8,0,0,0,11,30.91V36a1,1,0,0,0,1,1h1v2H11v2h2V51H11v2h2v4h2V53h4v4h2V53h2V51H21V41h2V39H21V37h2.67A5.73,5.73,0,0,1,26,41.61V61H1v2H63V61ZM13,35V33h4v2Zm13.9-6H31v2H27V30A5.47,5.47,0,0,0,26.9,29ZM31,27H26a4.95,4.95,0,0,0-8,0v0H13V23H31ZM17.1,29a5.47,5.47,0,0,0-.1,1v1H13V29ZM19,30a3,3,0,0,1,6,0v5H19Zm8,3h4v2H27ZM14.41,21,22,13.41,29.59,21ZM19,47H15V45h4Zm-4,4V49h4v2Zm4-8H15V41h4Zm0-4H15V37h4Zm7.47-2H32a1,1,0,0,0,1-1V22a1,1,0,0,0-.29-.71l-10-10a1,1,0,0,0-1.42,0l-10,10A1,1,0,0,0,11,22v6.47a6,6,0,0,1,1.93-10.09,1,1,0,0,0,.43-1.58A6,6,0,0,1,18,7a5.82,5.82,0,0,1,2.29.46A1,1,0,0,0,21.54,7a3.95,3.95,0,0,1,6.11-1,1,1,0,0,0,1.61-.4,4,4,0,0,1,7.52.14,1,1,0,0,0,.66.65,1,1,0,0,0,.9-.17A6,6,0,0,1,48,11a6.4,6.4,0,0,1-.25,1.73,1,1,0,0,0,.16.9,1,1,0,0,0,.84.38H49a6,6,0,0,1,4.2,10.29,1,1,0,0,0,0,1.42,6,6,0,0,1-7.34,9.4,1,1,0,0,0-.81-.11,1,1,0,0,0-.62.53A6,6,0,0,1,39,39a5.33,5.33,0,0,1-1-.09A9.23,9.23,0,0,1,47.24,30H48V28h-.76A11.23,11.23,0,0,0,36,39.24V61H32V52H30v9H28V41.61A7.69,7.69,0,0,0,26.47,37Z"/><path d="M35,19h.06a1,1,0,0,0,.72-.38l4-5-1.56-1.24-3.3,4.12-3.21-3.21-1.42,1.42,4,4A1,1,0,0,0,35,19Z"/><rect height="9" width="2" x="32" y="41"/></g></svg>